<svg xmlns="http://www.w3.org/2000/svg" width="512" height="512" viewBox="0 0 512 512" role="img" aria-label="My HR">
  <defs>
    <linearGradient id="bg" x1="0" y1="0" x2="1" y2="1">
      <stop offset="0" stop-color="#1d2460"/>
      <stop offset="1" stop-color="#0f172a"/>
    </linearGradient>
  </defs>
  <rect width="512" height="512" rx="112" fill="url(#bg)"/>
  <path d="M96 142h320c26 0 48 22 48 48v148c0 26-22 48-48 48H96c-26 0-48-22-48-48V190c0-26 22-48 48-48Z" fill="#ffffff" opacity=".08"/>
  <path d="M122 196h100v120h-42v-70l-26 70h-32V196Zm143 0h116v38h-74v19h62v36h-62v22h78v39H265V196Z" fill="#f8fafc"/>
  <circle cx="390" cy="150" r="50" fill="#0088ff"/>
  <path d="M378 130h24v40h-24zM370 138h40v24h-40z" fill="#ffffff"/>
</svg>
