<svg xmlns="http://www.w3.org/2000/svg" width="512" height="512" viewBox="0 0 512 512" role="img" aria-label="Stride ESS">
  <rect width="512" height="512" rx="112" fill="#FF5436"/>
  <g transform="translate(122, 106) scale(0.267)">
    <path d="M 951.5,26.4 L 915.6,34.8 L 744.7,98.1 L 706.8,115.0 L 684.6,135.0 L 513.7,447.3 L 473.6,529.5 L 455.7,553.8 L 444.1,550.6 L 444.1,529.5 L 469.4,453.6 L 475.7,413.5 L 501.1,335.4 L 507.4,295.4 L 517.9,274.3 L 539.0,179.3 L 549.6,158.2 L 546.4,144.5 L 493.7,180.4 L 399.8,259.5 L 285.9,516.9 L 278.5,524.3 L 270.0,524.3 L 264.8,514.8 L 269.0,432.5 L 279.5,365.0 L 279.5,354.4 L 272.2,349.2 L 22.2,668.8 L 22.2,683.5 L 421.9,977.8 L 438.8,977.8 L 916.7,111.8 L 948.3,52.7 L 954.6,35.9 L 951.5,26.4 Z" fill="#FFFFFF"/>
  </g>
</svg>
