<?xml version="1.0" standalone="no"?>
<!-- Stride icon mark — gradient coral to orange, derived from the Raven wing -->
<svg xmlns="http://www.w3.org/2000/svg" role="img" aria-label="Stride" viewBox="154 145 704 700" preserveAspectRatio="xMidYMid meet">
<defs>
<linearGradient id="strideIconGradient" x1="0%" y1="0%" x2="100%" y2="100%">
<stop offset="0%" stop-color="#DE4346"/>
<stop offset="100%" stop-color="#F27720"/>
</linearGradient>
</defs>
<path fill="url(#strideIconGradient)" stroke="none" d="M 472.5,153.69999999999993 C 406.0,159.29999999999995 341.90000000000003,185.0 289.7,226.89999999999998 C 188.10000000000002,308.69999999999993 142.3,439.1 169.9,567.8 C 187.60000000000002,649.7 238.60000000000002,726.0999999999999 309.1,776.1 C 391.6,834.6 496.20000000000005,852.5 591.5,824.4 C 708.5,789.9 799.6,694.7 828.4000000000001,576.8 C 835.8000000000001,546.5999999999999 838.4000000000001,525.2 838.4000000000001,494.0 C 838.4000000000001,468.19999999999993 837.4000000000001,456.4 833.4000000000001,434.0 C 829.6,413.0 821.3000000000001,382.0 819.6,382.0 C 819.3000000000001,382.0 815.2,387.69999999999993 810.4000000000001,394.69999999999993 C 805.6,401.79999999999995 797.8000000000001,412.69999999999993 793.0,419.1 L 784.3000000000001,430.69999999999993 L 786.2,440.0 C 788.5,451.69999999999993 790.7,468.4 791.6,481.69999999999993 L 792.3000000000001,492.0 L 757.7,492.0 L 723.2,492.0 L 713.5,500.0 C 689.4000000000001,520.0 660.8000000000001,540.9 638.5,555.0 C 588.9,586.2 527.4,614.7 475.20000000000005,630.5 C 467.3,632.9 460.3,635.3 459.70000000000005,635.9 C 457.1,638.5 465.40000000000003,652.0 476.3,663.0999999999999 C 492.40000000000003,679.4 507.8,686.8 538.5,693.2 L 544.5,694.4 L 538.0,695.0 C 516.8000000000001,697.0 493.20000000000005,691.8 473.40000000000003,680.9 C 458.90000000000003,672.8 446.90000000000003,660.8 438.6,645.7 C 435.20000000000005,639.4 430.40000000000003,627.3 431.1,626.5999999999999 C 431.3,626.4 436.0,625.0 441.5,623.5 C 477.70000000000005,614.0 534.9,592.0999999999999 572.0,573.5 C 624.8000000000001,547.0 684.5,506.2 725.5,468.4 C 772.1,425.5 807.9000000000001,376.4 825.3000000000001,331.5 C 829.8000000000001,320.0 836.0,300.79999999999995 836.0,298.5999999999999 C 836.0,297.0999999999999 832.8000000000001,298.5999999999999 822.6,304.79999999999995 C 816.5,308.5999999999999 799.8000000000001,318.79999999999995 785.5,327.5999999999999 C 710.6,373.69999999999993 669.0,399.1 667.3000000000001,399.6 C 666.3000000000001,399.9 668.3000000000001,397.5 671.7,394.29999999999995 C 675.1,391.1 690.6,376.4 706.3000000000001,361.69999999999993 C 732.4000000000001,337.0999999999999 735.4000000000001,334.0 741.8000000000001,324.19999999999993 C 748.7,313.69999999999993 780.7,264.0 808.5,220.79999999999995 C 816.2,208.79999999999995 825.8000000000001,194.0 829.8000000000001,187.79999999999995 C 846.6,161.69999999999993 850.2,155.89999999999998 849.8000000000001,155.39999999999998 C 849.3000000000001,155.0 823.0,166.0 806.5,173.5 C 803.2,175.0 793.5,179.29999999999995 785.0,183.0 C 771.2,189.0 743.9000000000001,201.19999999999993 699.0,221.29999999999995 C 691.0,224.89999999999998 680.2,229.79999999999995 674.9000000000001,232.29999999999995 L 665.2,236.79999999999995 L 659.5,247.0999999999999 C 656.3000000000001,252.79999999999995 650.9000000000001,262.19999999999993 647.5,268.0 C 644.1,273.79999999999995 636.0,287.69999999999993 629.5,299.0 C 623.0,310.29999999999995 615.4000000000001,323.29999999999995 612.7,328.0 C 607.6,336.69999999999993 604.0,342.9 571.6,399.0 C 561.2,416.9 548.8000000000001,438.19999999999993 544.0,446.5 C 539.2,454.69999999999993 529.5,471.4 522.5,483.5 C 509.20000000000005,506.4 508.0,508.4 508.0,506.0 C 508.1,503.59999999999997 517.5,468.1 522.9,450.0 C 524.0,446.4 528.1,431.79999999999995 532.0,417.5 C 535.9,403.19999999999993 542.3000000000001,380.5 546.0,367.0 C 549.8000000000001,353.5 554.0,338.19999999999993 555.4,332.9 C 558.4,321.5 566.1,293.79999999999995 573.6,267.0999999999999 C 576.6,256.5 579.0,247.39999999999998 578.8000000000001,246.89999999999998 C 578.6,246.39999999999998 576.0,248.0 573.0,250.29999999999995 C 512.9,297.5999999999999 494.1,312.5 487.40000000000003,318.0999999999999 L 479.3,324.79999999999995 L 470.5,346.19999999999993 C 465.70000000000005,357.9 457.70000000000005,376.9 452.8,388.5 C 447.90000000000003,400.0 441.70000000000005,414.9 439.0,421.5 C 436.40000000000003,428.1 430.40000000000003,442.5 425.8,453.5 C 421.1,464.5 415.70000000000005,477.29999999999995 413.8,481.9 C 410.0,491.2 407.6,493.7 408.5,487.29999999999995 C 408.8,485.19999999999993 409.5,468.19999999999993 410.0,449.5 C 410.6,430.79999999999995 411.5,406.9 412.0,396.5 C 412.5,386.0 412.90000000000003,374.29999999999995 412.90000000000003,370.5 L 412.90000000000003,363.5 L 409.40000000000003,367.5 C 407.40000000000003,369.69999999999993 401.90000000000003,376.5 397.1,382.69999999999993 C 388.0,394.5 360.6,429.5 343.20000000000005,451.5 C 337.5,458.6 329.8,468.5 326.1,473.5 C 322.3,478.4 316.1,486.4 312.40000000000003,491.2 C 308.6,496.0 300.40000000000003,506.4 294.1,514.4 C 287.8,522.4 282.5,528.8 282.2,528.5999999999999 C 281.8,528.0999999999999 289.7,513.2 299.8,495.5 C 302.3,491.09999999999997 306.90000000000003,483.0 310.0,477.5 C 313.1,472.0 316.90000000000003,465.29999999999995 318.5,462.69999999999993 C 322.20000000000005,456.19999999999993 322.0,454.79999999999995 316.5,445.69999999999993 C 303.0,423.4 296.0,400.29999999999995 296.0,377.5999999999999 L 296.0,366.69999999999993 L 290.2,367.29999999999995 C 280.8,368.29999999999995 256.90000000000003,376.5999999999999 242.8,383.69999999999993 C 235.70000000000002,387.29999999999995 229.60000000000002,390.0 229.3,389.6 C 227.4,387.69999999999993 244.10000000000002,352.9 255.8,334.5999999999999 C 290.8,280.0999999999999 344.3,237.39999999999998 405.5,215.5 C 442.0,202.39999999999998 486.0,196.5999999999999 522.6,200.0 C 562.8000000000001,203.79999999999995 593.3000000000001,212.5 629.3000000000001,230.5999999999999 C 637.4000000000001,234.69999999999993 644.3000000000001,238.0 644.5,238.0 C 644.8000000000001,238.0 646.5,235.5999999999999 648.3000000000001,232.69999999999993 C 650.2,229.89999999999998 653.1,226.29999999999995 654.7,224.69999999999993 C 657.2,222.39999999999998 673.8000000000001,214.29999999999995 683.3000000000001,210.79999999999995 C 687.1,209.39999999999998 686.8000000000001,208.69999999999993 680.8000000000001,204.69999999999993 C 649.1,183.89999999999998 602.9,165.79999999999995 561.5,158.0999999999999 C 538.5,153.79999999999995 496.1,151.69999999999993 472.5,153.69999999999993"/>
</svg>
