<?xml version="1.0" standalone="no"?>
<!-- Stride wordmark — coral #FF5436 --><svg xmlns="http://www.w3.org/2000/svg" role="img" aria-label="Stride" viewBox="52 200 397 100" preserveAspectRatio="xMidYMid meet"><g transform="matrix(.1 0 0 -.1 0 500)" fill="#FF5436" stroke="none"><path d="M4267 2904c-12-12-8-109 5-122 7-7 38-12 70-12 66 0 72 9 66 91l-3 44-65 3c-36 2-69 0-73-4zM1327 2773c-11-10-8-589 3-617 5-14 18-34 30-46 19-19 32-20 269-20 249 0 250 0 278 24 24 21 27 31 28 82l0 59-63 3c-49 2-64 0-68-13-5-13-31-15-170-15l-163 0-3 158c-2 86 1 163 6 170 6 9 59 12 202 12l194 0 0 70 0 70-199 0-199 0-6 35-7 35-63 0c-34 0-66-3-69-7zM3377 2774c-4-4-7-128-7-276l0-268-165 0-165 0 2 168 3 167 130 5 130 5 0 65 0 65-173 0-174 0-29-33-30-33 3-251 3-250 28-24c28-24 28-24 276-24l247 0 30 31 29 30 0 312 0 312-65 3c-36 2-69 0-73-4zM690 2692c-26-13-38-27-47-57-16-56-16-198 1-239 26-63 38-66 263-66l203 0 0-50 0-50-165 0c-138 0-167 3-171 15-5 11-22 15-69 15-59 0-63-2-69-25-10-38 11-101 41-124 24-20 39-21 272-21l247 0 27 28c26 27 27 31 27 156 0 72-5 136-11 148-21 40-66 48-269 48l-191 0 3 48 3 47 233 3 232 2 0 70 0 70-262 0c-230 0-267-2-298-18zM2074 2700c-12-4-31-21-43-36-20-26-21-36-21-300l0-274 65 0c36 0 66 1 67 3 1 1 5 108 8 237l5 235 230 3c126 1 232 6 235 12 3 5 3 35 0 67l-5 58-260 2c-143 1-270-2-281-7zM2697 2704c-4-4-7-144-7-311l0-303 70 0 70 0-2 308-3 307-60 3c-34 2-64 0-68-4zM3634 2691c-48-29-54-61-54-298 0-227 7-270 48-292 13-7 111-11 270-11l250 0 26 31c21 25 26 41 26 85l0 54-65 0c-47 0-66-4-73-15-7-13-34-15-173-13l-164 3 0 165 0 165 165 0 165 0 3-47 3-48-123 0c-68 0-129-4-136-9-9-5-12-26-10-67l3-59 173-3 173-2 30 30 31 30-4 135c-4 188 1 185-311 185-201 0-225-2-253-19z"/></g></svg>